# xmcd
#
# Track frame offsets: 
#        150
#        11337
#        24306
#        38407
#        54175
#        66185
#        79443
#        91606
#        105886
#        118109
#        131145
#        143328
#        155730
#        170063
#        182637
#        195850
#        206375
#        220616
#        235474
#        247424
#        259185
#        272795
#        285880
#        298248
#        310425
#
# Disc length: 4298 seconds
#
# Revision: 0
# Processed by: cddbd v1.4PL0 Copyright (c) Steve Scherf et al.
# Submitted via: ExactAudioCopy v0.90a11
#
DISCID=5d10c819
DTITLE=Bill Carlisle featuring Cliff Carlisle - Rough and Rowdy Hillbi
DTITLE=lly of the 1930s vol 1
DYEAR=1900
DGENRE=
TTITLE0=A Mouse Been Messin' Around
TTITLE1=Sally Let Your Bangs Hang Down
TTITLE2=Big at the Little, Bottom at the Top
TTITLE3=You're Just Like a Dollar Bill
TTITLE4=I Done it Wrong
TTITLE5=Ten or Twelve Times, Maybe More
TTITLE6=Feet, Don't Fail Me
TTITLE7=Three Women to Every Man
TTITLE8=Gonna Raise a Ruckus Tonight
TTITLE9=Beneath the Old Pine Tree
TTITLE10=Ditty Wah Ditty
TTITLE11=Blue Eyes
TTITLE12=Bell Clappin' Mama
TTITLE13=House Cat Mama
TTITLE14=I'm Wearing the Britches Now
TTITLE15=My Little Sadie
TTITLE16=Go On and Leave Me if You Wish To
TTITLE17=Sugar Cane Mama
TTITLE18=I Believe I'm Entitled to You
TTITLE19=Flag That Train
TTITLE20=Rattlin' Daddy
TTITLE21=Jumpin' and Jerkin' Blues
TTITLE22=A Dollar's All I Crave
TTITLE23=Don't Let Me Worry Your Little Mind
TTITLE24=Baby You Done Flubbed Your Dub With Me
EXTD=
EXTT0=
EXTT1=
EXTT2=
EXTT3=
EXTT4=
EXTT5=
EXTT6=
EXTT7=
EXTT8=
EXTT9=
EXTT10=
EXTT11=
EXTT12=
EXTT13=
EXTT14=
EXTT15=
EXTT16=
EXTT17=
EXTT18=
EXTT19=
EXTT20=
EXTT21=
EXTT22=
EXTT23=
EXTT24=
PLAYORDER=
